<svg width="86" height="91" viewBox="0 0 86 91" fill="none" xmlns="http://www.w3.org/2000/svg">
<path d="M44.152 90.56C35.7893 90.56 28.28 88.512 21.624 84.416C15.0533 80.32 9.89067 74.7733 6.136 67.776C2.46667 60.6933 0.632 52.928 0.632 44.48C0.632 36.3733 2.25333 29.0347 5.496 22.464C8.73867 15.808 13.3467 10.56 19.32 6.71999C25.3787 2.88 32.376 0.959999 40.312 0.959999C47.6507 0.959999 53.9653 1.94133 59.256 3.904C64.632 5.78133 68.5573 8.21333 71.032 11.2C72.3973 12.9067 73.2507 15.168 73.592 17.984C74.0187 20.8 74.232 24.2987 74.232 28.48H71.672C70.0507 20.9707 66.9787 15.3813 62.456 11.712C57.9333 7.95733 51.832 6.07999 44.152 6.07999C37.24 6.07999 31.48 7.91466 26.872 11.584C22.264 15.168 18.8507 19.8613 16.632 25.664C14.4987 31.4667 13.432 37.7387 13.432 44.48C13.432 58.9013 16.248 69.3547 21.88 75.84C27.512 82.24 34.936 85.44 44.152 85.44C48.504 85.44 52.216 85.056 55.288 84.288C58.36 83.52 61.2613 82.4107 63.992 80.96V58.688C63.992 55.7867 64.4613 53.2693 65.4 51.136C66.3387 49.0027 68.344 47.2533 71.416 45.888C74.5733 44.4373 79.1387 43.712 85.112 43.712V46.272C81.272 46.272 78.712 47.2533 77.432 49.216C76.152 51.1787 75.512 54.2507 75.512 58.432V82.496C70.904 85.312 66.0827 87.36 61.048 88.64C56.0133 89.92 50.3813 90.56 44.152 90.56Z" fill="white"/>
</svg>
